<svg width="22" height="19" viewBox="0 0 22 19" fill="none" xmlns="http://www.w3.org/2000/svg">
<path d="M18.7616 18.87L14.7156 14.8545C14.2027 15.0444 13.6344 15.1995 13.0106 15.32C12.3869 15.4405 11.7167 15.5008 11.0001 15.5008C8.65007 15.5008 6.53666 14.8546 4.65982 13.5623C2.78282 12.27 1.40907 10.5828 0.538574 8.5008C0.907741 7.61746 1.38466 6.79346 1.96932 6.0288C2.55399 5.26396 3.19757 4.6008 3.90007 4.0393L1.13082 1.2393L2.18482 0.185547L19.8153 17.816L18.7616 18.87ZM11.0001 12.5778C11.2091 12.5778 11.4232 12.5598 11.6423 12.5238C11.8617 12.488 12.0566 12.4354 12.2271 12.366L7.13482 7.2738C7.06549 7.45713 7.01291 7.6568 6.97707 7.8728C6.94107 8.08896 6.92307 8.2983 6.92307 8.5008C6.92307 9.63546 7.31891 10.5986 8.11058 11.3903C8.90224 12.182 9.86541 12.5778 11.0001 12.5778ZM17.9538 13.0853L14.8173 9.9738C14.8955 9.76096 14.9583 9.5328 15.0058 9.2893C15.0533 9.04563 15.0771 8.7828 15.0771 8.5008C15.0771 7.36613 14.6812 6.40296 13.8896 5.6113C13.0979 4.81963 12.1347 4.4238 11.0001 4.4238C10.7181 4.4238 10.4585 4.44913 10.2213 4.4998C9.98416 4.55046 9.75591 4.62646 9.53657 4.7278L7.03482 2.23555C7.66682 1.98421 8.31233 1.79896 8.97132 1.6798C9.63033 1.56046 10.3066 1.5008 11.0001 1.5008C13.3436 1.5008 15.457 2.14696 17.3403 3.4393C19.2237 4.73163 20.5974 6.4188 21.4616 8.5008C21.0911 9.3943 20.6126 10.2283 20.0261 11.0028C19.4394 11.7771 18.7487 12.4713 17.9538 13.0853ZM13.6846 8.8508L10.6751 5.8508C11.1161 5.76746 11.5324 5.80013 11.9241 5.9488C12.3157 6.09763 12.6532 6.3188 12.9366 6.6123C13.2264 6.90596 13.4386 7.25021 13.5731 7.64505C13.7077 8.03988 13.7449 8.4418 13.6846 8.8508Z" fill="black" fill-opacity="0.4"/>
</svg>
