<svg width="19" height="14" viewBox="0 0 19 14" fill="none" xmlns="http://www.w3.org/2000/svg">
<path d="M10.75 4.95833V3.375C11.1806 3.23611 11.625 3.13542 12.0833 3.07292C12.5417 3.01042 13.0139 2.97917 13.5 2.97917C13.8194 2.97917 14.1424 2.99653 14.4688 3.03125C14.7951 3.06597 15.1389 3.11806 15.5 3.1875V4.72917C15.0833 4.63194 14.7153 4.5625 14.3958 4.52083C14.0764 4.47917 13.7778 4.45833 13.5 4.45833C13.0278 4.45833 12.5625 4.5 12.1042 4.58333C11.6458 4.66667 11.1944 4.79167 10.75 4.95833ZM10.75 9.875V8.29167C11.1389 8.16667 11.5556 8.06597 12 7.98958C12.4444 7.91319 12.9444 7.875 13.5 7.875C13.875 7.875 14.2257 7.89583 14.5521 7.9375C14.8785 7.97917 15.1944 8.03472 15.5 8.10417V9.64583C15.0833 9.54861 14.7153 9.47917 14.3958 9.4375C14.0764 9.39583 13.7778 9.375 13.5 9.375C13.0278 9.375 12.5625 9.41667 12.1042 9.5C11.6458 9.58333 11.1944 9.70833 10.75 9.875ZM10.75 7.41667V5.83333C11.1944 5.69444 11.6493 5.59028 12.1146 5.52083C12.5799 5.45139 13.0417 5.41667 13.5 5.41667C13.875 5.41667 14.2257 5.4375 14.5521 5.47917C14.8785 5.52083 15.1944 5.57639 15.5 5.64583V7.1875C15.1389 7.09028 14.7951 7.02083 14.4688 6.97917C14.1424 6.9375 13.8194 6.91667 13.5 6.91667C13.0556 6.91667 12.6076 6.95833 12.1562 7.04167C11.7049 7.125 11.2361 7.25 10.75 7.41667ZM9.75 11.875C10.3472 11.5972 10.9583 11.3819 11.5833 11.2292C12.2083 11.0764 12.8472 11 13.5 11C14.0139 11 14.5243 11.0312 15.0312 11.0938C15.5382 11.1562 16.0278 11.2917 16.5 11.5V2.08333C16.0139 1.90278 15.5208 1.76042 15.0208 1.65625C14.5208 1.55208 14.0139 1.5 13.5 1.5C12.8333 1.5 12.1875 1.57639 11.5625 1.72917C10.9375 1.88194 10.3333 2.11111 9.75 2.41667V11.875ZM9 14C8.31944 13.5556 7.60417 13.1944 6.85417 12.9167C6.10417 12.6389 5.31944 12.5 4.5 12.5C3.97222 12.5 3.44444 12.5521 2.91667 12.6562C2.38889 12.7604 1.88194 12.9167 1.39583 13.125C1.0625 13.2639 0.746528 13.2396 0.447917 13.0521C0.149306 12.8646 0 12.5903 0 12.2292V1.75C0 1.55556 0.0520833 1.375 0.15625 1.20833C0.260417 1.04167 0.402778 0.916667 0.583333 0.833333C1.20833 0.555556 1.84722 0.347222 2.5 0.208333C3.15278 0.0694444 3.81944 0 4.5 0C5.29167 0 6.06597 0.09375 6.82292 0.28125C7.57986 0.46875 8.30556 0.75 9 1.125C9.70833 0.763889 10.4375 0.486111 11.1875 0.291667C11.9375 0.0972222 12.7083 0 13.5 0C14.1806 0 14.8472 0.0694444 15.5 0.208333C16.1528 0.347222 16.7917 0.555556 17.4167 0.833333C17.5972 0.916667 17.7431 1.04167 17.8542 1.20833C17.9653 1.375 18.0208 1.55556 18.0208 1.75V12.2292C18.0208 12.5764 17.9132 12.8542 17.6979 13.0625C17.4826 13.2708 17.2569 13.3194 17.0208 13.2083C16.4653 12.9583 15.8924 12.7778 15.3021 12.6667C14.7118 12.5556 14.1111 12.5 13.5 12.5C12.6806 12.5 11.8958 12.6389 11.1458 12.9167C10.3958 13.1944 9.68056 13.5556 9 14Z" fill="white"/>
</svg>
