<svg width="15" height="18" viewBox="0 0 15 18" fill="none" xmlns="http://www.w3.org/2000/svg">
<path d="M8 13V6.75C8 6.5375 8.07187 6.35938 8.21562 6.21562C8.35938 6.07187 8.5375 6 8.75 6H14.25C14.4625 6 14.6406 6.07187 14.7844 6.21562C14.9281 6.35938 15 6.5375 15 6.75V10.75C15 10.9625 14.9281 11.1406 14.7844 11.2844C14.6406 11.4281 14.4625 11.5 14.25 11.5H9.5L8 13ZM1.5 18C1.0875 18 0.734375 17.8531 0.440625 17.5594C0.146875 17.2656 0 16.9125 0 16.5V1.5C0 1.0875 0.146875 0.734376 0.440625 0.440626C0.734375 0.146876 1.0875 0 1.5 0H10.5C10.9125 0 11.2656 0.146876 11.5594 0.440626C11.8531 0.734376 12 1.0875 12 1.5V5H10.5V4H1.5V14H10.5V13H12V16.5C12 16.9125 11.8531 17.2656 11.5594 17.5594C11.2656 17.8531 10.9125 18 10.5 18H1.5Z" fill="white"/>
</svg>
