<svg width="16" height="14" viewBox="0 0 16 14" fill="none" xmlns="http://www.w3.org/2000/svg">
<path d="M3.74563 8C3.95688 8 4.13542 7.92854 4.28125 7.78562C4.42708 7.64271 4.5 7.46562 4.5 7.25437C4.5 7.04313 4.42854 6.86458 4.28562 6.71875C4.14271 6.57292 3.96563 6.5 3.75437 6.5C3.54312 6.5 3.36458 6.57146 3.21875 6.71438C3.07292 6.85729 3 7.03438 3 7.24563C3 7.45688 3.07146 7.63542 3.21438 7.78125C3.35729 7.92708 3.53438 8 3.74563 8ZM3.74563 5.5C3.95688 5.5 4.13542 5.42854 4.28125 5.28563C4.42708 5.14271 4.5 4.96563 4.5 4.75438C4.5 4.54313 4.42854 4.36458 4.28562 4.21875C4.14271 4.07292 3.96563 4 3.75437 4C3.54312 4 3.36458 4.07146 3.21875 4.21437C3.07292 4.35729 3 4.53437 3 4.74562C3 4.95687 3.07146 5.13542 3.21438 5.28125C3.35729 5.42708 3.53438 5.5 3.74563 5.5ZM6 8H13V6.5H6V8ZM6 5.5H13V4H6V5.5ZM5 14V12H1.5C1.0875 12 0.734375 11.8531 0.440625 11.5592C0.146875 11.2653 0 10.9119 0 10.4992V1.49417C0 1.08139 0.146875 0.729167 0.440625 0.4375C0.734375 0.145833 1.0875 0 1.5 0H14.5C14.9125 0 15.2656 0.146944 15.5594 0.440833C15.8531 0.734722 16 1.08806 16 1.50083V10.5058C16 10.9186 15.8531 11.2708 15.5594 11.5625C15.2656 11.8542 14.9125 12 14.5 12H11V14H5Z" fill="white"/>
</svg>
