<svg width="12" height="16" viewBox="0 0 12 16" fill="none" xmlns="http://www.w3.org/2000/svg">
<path d="M3.20841 7.79097H8.79171V6.70768H3.20841V7.79097ZM3.20841 4.79098H8.79171V3.70768H3.20841V4.79098ZM11.5465 14.525L8.8696 11.0077C8.67985 10.7532 8.44498 10.5562 8.16498 10.4168C7.88496 10.2774 7.57999 10.2077 7.25006 10.2077H0.416748V1.75577C0.416748 1.38066 0.546345 1.06359 0.805539 0.804558C1.06473 0.54553 1.382 0.416016 1.75733 0.416016H10.2495C10.6249 0.416016 10.941 0.54553 11.198 0.804558C11.4549 1.06359 11.5834 1.38066 11.5834 1.75577V14.2429C11.5834 14.2929 11.582 14.342 11.5794 14.3902C11.5767 14.4384 11.5657 14.4833 11.5465 14.525ZM1.7565 15.5826C1.38139 15.5826 1.06432 15.4531 0.80529 15.1941C0.546262 14.9351 0.416748 14.618 0.416748 14.2429V11.291H7.25006C7.39323 11.291 7.53372 11.322 7.67154 11.3839C7.80936 11.4459 7.92619 11.5402 8.02202 11.667L10.8799 15.4233C10.7944 15.4697 10.6956 15.5078 10.5835 15.5378C10.4715 15.5677 10.3582 15.5826 10.2436 15.5826H1.7565Z" fill="white"/>
</svg>
