<svg width="144" height="35" viewBox="0 0 144 35" fill="none" xmlns="http://www.w3.org/2000/svg">
<path d="M29.0389 4.85419C28.5966 3.90639 28.5123 2.97966 28.9125 2.07398C29.1652 1.48424 29.5865 1.02088 30.1552 0.704943C31.2293 0.073078 32.6405 0.199451 33.5883 0.999813C34.7046 1.94761 34.9152 3.14815 34.2412 4.98056C34.5993 5.06481 34.9363 5.128 35.2943 5.19118C41.276 6.5181 45.8043 11.1939 46.8364 17.1966C47.3629 20.2296 46.9628 23.1572 45.678 25.9585C45.5095 26.3165 45.3199 26.485 44.8987 26.464C43.0241 26.4429 41.1707 26.4429 39.2961 26.4429C39.1487 26.4429 39.0223 26.4429 38.7696 26.4429C40.9811 24.1261 41.95 21.4512 41.5287 18.3761C41.1917 15.9329 40.0333 13.932 38.1167 12.3734C34.4097 9.36149 29.2074 9.57211 25.6268 12.921C22.4043 15.9118 21.2037 21.9777 25.5215 26.4429C25.353 26.4429 25.2056 26.464 25.0792 26.464C17.7917 26.464 10.5252 26.464 3.23772 26.464C1.86868 26.464 0.815571 25.7689 0.436453 24.5894C-0.132226 22.8202 1.19469 21.0299 3.11135 21.0299C7.26059 21.0299 11.3888 21.0299 15.538 21.0299C15.8118 21.0299 16.1067 21.0299 16.3594 20.9457C16.9702 20.7772 17.3704 20.1453 17.2862 19.5345C17.2019 18.9026 16.6964 18.4182 16.0435 18.3761C15.7486 18.355 15.4538 18.3761 15.1589 18.3761C11.136 18.3761 7.11316 18.3761 3.09028 18.3761C1.57381 18.3761 0.373266 17.3019 0.31008 15.8697C0.225831 14.3322 1.25788 13.1527 2.79541 12.9842C3.06922 12.9631 3.34303 12.9421 3.61684 12.9421C8.41901 12.9421 13.2212 12.9421 18.0023 12.9421C19.0343 12.9421 19.6873 12.0785 19.3503 11.1518C19.1397 10.6042 18.6552 10.2672 17.9812 10.2672C16.6333 10.2672 15.2642 10.2672 13.9162 10.2672C12.484 10.2672 11.3256 9.2983 11.1571 7.97139C10.9886 6.49704 11.8521 5.27543 13.3054 4.93844C13.5371 4.87525 13.7899 4.87525 14.0426 4.87525C18.8237 4.87525 23.6048 4.87525 28.3859 4.87525C28.5966 4.85419 28.7651 4.85419 29.0389 4.85419Z" fill="white"/>
<path d="M43.6347 29.1382C43.2767 29.5384 43.0029 29.8544 42.708 30.1492C39.7382 33.0769 36.1577 34.5512 31.9663 34.5512C26.0057 34.5512 20.0451 34.5512 14.0635 34.5512C12.547 34.5512 11.536 33.814 11.199 32.4871C10.7778 30.8443 11.9783 29.2225 13.6633 29.1382C13.8528 29.1382 14.0424 29.1172 14.2319 29.1172C23.8152 29.1172 33.3985 29.1172 42.9818 29.1172C43.1714 29.1382 43.3399 29.1382 43.6347 29.1382Z" fill="white"/>
<path d="M53.2134 17.6201C53.2766 14.7978 54.1822 12.4809 56.457 10.8381C57.5943 10.0167 58.9002 9.63754 60.2903 9.55329C61.6382 9.46905 62.9652 9.57436 64.2289 10.1009C66.6089 11.1119 68.0411 12.9232 68.5888 15.4086C69.1996 18.2309 68.6941 20.8426 66.7563 23.0541C65.7875 24.1494 64.5238 24.7812 63.0915 25.0972C61.4066 25.4552 59.7426 25.4131 58.1209 24.8655C55.3407 23.8966 53.8874 21.8325 53.3819 19.0313C53.2555 18.5047 53.2555 17.9992 53.2134 17.6201ZM55.9936 17.3884C56.0357 17.8097 56.0568 18.2309 56.141 18.6521C56.5201 20.5056 57.4679 21.9168 59.3846 22.4433C60.1007 22.6329 60.88 22.6961 61.6382 22.654C63.3022 22.5486 64.5869 21.7483 65.3873 20.2318C65.9139 19.2208 66.1034 18.1467 66.0402 17.0304C65.9139 14.7767 64.7133 12.4388 61.7857 12.0808C59.7637 11.828 57.8049 12.502 56.7308 14.5029C56.2042 15.4296 55.9936 16.3774 55.9936 17.3884Z" fill="white"/>
<path d="M88.6398 15.6828C88.6398 13.6609 88.6398 11.7864 88.6398 9.84863C89.5034 9.84863 90.3458 9.84863 91.2305 9.84863C91.2305 14.8614 91.2305 19.8742 91.2305 24.9081C90.4512 24.9081 89.6508 24.9081 88.8504 24.9081C88.7872 24.4658 88.7241 24.0235 88.6609 23.6022C88.5766 23.6233 88.5556 23.6443 88.5345 23.6443C87.0391 26.0665 81.921 25.6663 80.3624 22.5281C79.3935 20.5693 79.3935 18.5473 80.3624 16.6096C81.1417 15.051 82.5318 14.2927 84.2168 14.1242C84.9118 14.0611 85.649 14.1243 86.344 14.2506C87.2286 14.4191 87.9869 14.8825 88.6398 15.6828ZM88.4713 19.6215C88.4713 17.8312 87.1023 16.4622 85.3331 16.4622C83.5849 16.4622 82.3001 17.7891 82.3001 19.5793C82.3001 21.4328 83.5849 22.7597 85.3752 22.7597C87.1444 22.7808 88.4713 21.4328 88.4713 19.6215Z" fill="white"/>
<path d="M102.247 21.9791C102.71 22.4424 103.237 22.969 103.805 23.5377C103.258 24.1064 102.605 24.5065 101.868 24.7593C99.8877 25.4543 97.9079 25.4754 96.0123 24.4855C94.4326 23.664 93.6744 22.2529 93.4216 20.5258C93.2531 19.2621 93.3795 18.0405 93.9482 16.9031C94.8328 15.1128 96.3493 14.1861 98.287 14.0386C99.1505 13.9755 100.056 14.0176 100.899 14.2282C102.942 14.7337 104.248 16.3976 104.416 18.5249C104.458 19.0514 104.458 19.578 104.479 20.0835C104.5 20.4415 104.353 20.5679 103.974 20.5679C101.531 20.5468 99.0874 20.5679 96.6441 20.5679C96.4756 20.5679 96.3282 20.5679 96.0965 20.5679C96.1808 21.3472 96.5599 21.8948 97.1496 22.295C98.1396 22.9479 99.2559 23.0111 100.372 22.7163C101.004 22.5478 101.594 22.2318 102.247 21.9791ZM96.1387 18.3564C98.0764 18.3564 99.993 18.3564 101.889 18.3564C101.868 17.6824 101.51 17.0927 100.941 16.7346C99.8667 16.0606 98.0764 16.1449 97.0865 16.9242C96.602 17.3033 96.2861 17.7666 96.1387 18.3564Z" fill="white"/>
<path d="M127.584 14.4393C127.584 15.2186 127.584 15.9347 127.584 16.714C127.247 16.714 126.91 16.714 126.573 16.714C126.004 16.714 125.435 16.735 124.867 16.714C124.551 16.6929 124.445 16.7982 124.445 17.1352C124.467 19.5784 124.445 22.0217 124.445 24.4438C124.445 24.5912 124.445 24.7387 124.445 24.9072C123.561 24.9072 122.718 24.9072 121.834 24.9072C121.834 24.7176 121.834 24.5491 121.834 24.3806C121.834 21.9795 121.834 19.5784 121.834 17.1984C121.834 16.8193 121.792 16.735 121.391 16.735C120.907 16.735 120.38 16.714 119.875 16.714C119.875 15.9557 119.875 15.2396 119.875 14.4393C120.359 14.4393 121.349 14.4393 121.855 14.4393C121.855 14.4393 121.855 14.334 121.834 13.9759C121.792 12.9017 121.981 11.8697 122.655 10.9851C123.645 9.72135 125.478 9.21586 127.247 9.74241C127.731 9.88985 128.173 10.1215 128.679 10.3322C128.342 11.0272 128.026 11.6591 127.71 12.312C126.847 11.8486 125.962 11.4695 125.056 12.1224C124.53 12.5016 124.34 13.3651 124.488 14.4393C125.52 14.4393 126.552 14.4393 127.584 14.4393Z" fill="white"/>
<path d="M143.444 15.5561C142.875 16.1458 142.348 16.6934 141.801 17.2832C141 16.6302 140.095 16.3143 139.063 16.5039C138.304 16.6302 137.673 16.9883 137.188 17.6202C136.261 18.8207 136.346 20.8005 137.336 21.8747C138.241 22.8646 140.347 23.2859 141.969 21.9379C142.243 22.2117 142.538 22.4645 142.833 22.7593C143.107 23.0331 143.401 23.328 143.696 23.6439C142.896 24.4443 141.948 24.9919 140.811 25.2025C139.294 25.4553 137.841 25.3078 136.493 24.5496C134.85 23.6229 134.113 22.1275 133.966 20.2951C133.881 19.2209 133.966 18.1467 134.408 17.1357C135.293 15.1348 136.935 14.2291 139.042 14.0607C140.537 13.9343 141.927 14.2291 143.086 15.2612C143.191 15.3033 143.296 15.4086 143.444 15.5561Z" fill="white"/>
<path d="M77.961 17.3043C77.2449 16.6303 76.4024 16.5461 75.5599 16.6303C74.233 16.7778 73.3905 17.7888 73.3695 19.242C73.3484 20.9691 73.3695 22.6962 73.3695 24.4023C73.3695 24.5497 73.3695 24.6971 73.3695 24.8867C72.5059 24.8867 71.6424 24.8867 70.7788 24.8867C70.7788 21.3483 70.7788 17.8309 70.7788 14.2924C71.5581 14.2924 72.3585 14.2924 73.1588 14.2924C73.222 14.6505 73.3063 15.0296 73.3905 15.514C74.1698 14.2924 75.265 13.9554 76.5498 13.9976C77.5187 14.0397 78.3822 14.3135 79.1615 14.9875C78.7614 15.7668 78.3612 16.504 77.961 17.3043Z" fill="white"/>
<path d="M106.543 14.2923C107.301 14.2923 108.017 14.2923 108.755 14.3134C108.839 14.3134 108.944 14.4819 108.965 14.5872C109.028 14.8399 109.07 15.1137 109.113 15.4507C109.218 15.3875 109.26 15.3454 109.302 15.3033C110.124 14.1449 111.303 13.9342 112.609 14.0606C113.325 14.1238 113.999 14.3765 114.61 14.7978C114.82 14.9452 114.905 15.0927 114.757 15.3454C114.399 15.9773 114.083 16.6302 113.704 17.3252C113.093 16.7987 112.398 16.6302 111.619 16.6513C110.166 16.6934 109.134 17.6833 109.134 19.1366C109.113 20.9058 109.134 22.6961 109.134 24.4653C109.134 24.6128 109.134 24.7602 109.134 24.9497C108.27 24.9497 107.407 24.9497 106.543 24.9497C106.543 21.3902 106.543 17.8729 106.543 14.2923Z" fill="white"/>
<path d="M115.979 24.95C115.979 21.3694 115.979 17.831 115.979 14.2715C116.843 14.2715 117.664 14.2715 118.528 14.2715C118.549 14.44 118.57 14.5874 118.57 14.7559C118.57 17.9995 118.57 21.7275 118.57 24.9711H115.979V24.95Z" fill="white"/>
<path d="M129.564 24.95C129.564 21.3694 129.564 17.831 129.564 14.2715C130.406 14.2715 131.228 14.2715 132.112 14.2715C132.133 14.4189 132.154 14.5874 132.154 14.7349C132.154 17.9784 132.154 21.7064 132.154 24.95H129.564Z" fill="white"/>
<path d="M132.344 11.2596C132.344 12.1653 131.733 12.7972 130.827 12.7972C129.922 12.7972 129.29 12.1864 129.29 11.2807C129.29 10.375 129.922 9.74316 130.827 9.74316C131.733 9.74316 132.344 10.354 132.344 11.2596Z" fill="white"/>
<path d="M115.705 11.2602C115.705 10.3545 116.316 9.72266 117.243 9.72266C118.149 9.72266 118.78 10.3545 118.78 11.2602C118.78 12.1448 118.127 12.7977 117.222 12.7977C116.337 12.7977 115.705 12.1659 115.705 11.2602Z" fill="white"/>
</svg>
