<svg width="12" height="16" viewBox="0 0 12 16" fill="none" xmlns="http://www.w3.org/2000/svg">
<path d="M0.416748 13.4032V12.3199H1.2565V6.93522C1.2565 5.75895 1.62669 4.72984 2.36706 3.84789C3.10745 2.96595 4.05457 2.43256 5.20842 2.24775V1.20768C5.20842 0.987779 5.28529 0.800864 5.43904 0.646933C5.59279 0.492989 5.77948 0.416016 5.99912 0.416016C6.21876 0.416016 6.40577 0.492989 6.56014 0.646933C6.71452 0.800864 6.79171 0.987779 6.79171 1.20768V2.24775C7.94555 2.43256 8.89267 2.96595 9.63306 3.84789C10.3734 4.72984 10.7436 5.75895 10.7436 6.93522V12.3199H11.5834V13.4032H0.416748ZM5.99423 15.7429C5.62419 15.7429 5.30936 15.6117 5.04975 15.3493C4.79014 15.087 4.66033 14.7716 4.66033 14.4032H7.33979C7.33979 14.7771 7.20804 15.0939 6.94454 15.3535C6.68103 15.6131 6.36425 15.7429 5.99423 15.7429Z" fill="black"/>
</svg>
